<?xml version="1.0" encoding="UTF-8" standalone="no"?>
<!DOCTYPE svg PUBLIC "-//W3C//DTD SVG 1.1//EN" "http://www.w3.org/Graphics/SVG/1.1/DTD/svg11.dtd">
<svg xmlns="http://www.w3.org/2000/svg" version="1.1" viewBox="0.00 0.00 144.00 144.00">
<g stroke-width="2.00" fill="none" stroke-linecap="butt">
<path stroke="#808080" vector-effect="non-scaling-stroke" d="
  M 56.53 45.56
  Q 63.66 45.17 70.20 42.31
  A 0.48 0.48 0.0 0 0 70.23 41.45
  C 58.53 35.36 41.21 37.33 28.45 39.79
  A 1.23 1.23 0.0 0 0 27.64 41.66
  L 30.12 45.58
  A 0.96 0.96 0.0 0 0 31.68 45.66
  L 32.67 44.42
  Q 32.94 44.08 33.33 44.27
  C 39.59 47.28 46.05 46.35 52.58 46.02
  A 1.41 1.40 -8.0 0 1 54.01 47.09
  C 56.02 55.34 61.10 93.42 48.25 94.72
  Q 38.43 95.71 28.56 90.43
  Q 28.14 90.20 27.67 90.24
  Q 25.37 90.41 23.17 89.66
  Q 22.65 89.49 22.27 89.88
  C 17.71 94.46 23.97 98.55 27.73 100.27
  C 36.61 104.35 48.74 107.09 56.73 100.07
  C 69.72 88.66 60.66 59.76 56.10 46.20
  Q 55.90 45.60 56.53 45.56"
/>
<path stroke="#808080" vector-effect="non-scaling-stroke" d="
  M 83.84 48.98
  C 82.97 67.80 82.25 88.12 88.41 106.19
  A 0.46 0.46 0.0 0 0 89.24 106.28
  L 92.96 100.03
  Q 93.24 99.58 93.23 99.04
  Q 92.71 70.55 89.47 42.26
  A 0.36 0.36 0.0 0 0 88.83 42.08
  L 84.16 48.11
  Q 83.86 48.50 83.84 48.98"
/>
<path stroke="#808080" vector-effect="non-scaling-stroke" d="
  M 113.83 48.87
  C 112.78 67.89 112.39 87.88 118.31 106.25
  A 0.45 0.45 0.0 0 0 119.12 106.34
  L 122.97 99.92
  Q 123.21 99.52 123.20 99.05
  Q 122.62 70.83 119.49 42.80
  A 0.56 0.56 0.0 0 0 118.49 42.51
  L 114.10 48.16
  Q 113.86 48.47 113.83 48.87"
/>
</g>
<path fill="#000000" d="
  M 12.56 0.00
  L 131.31 0.00
  Q 142.09 2.22 144.00 13.07
  L 144.00 131.31
  Q 141.80 142.09 130.94 144.00
  L 12.70 144.00
  Q 2.02 141.76 0.00 131.20
  L 0.00 12.69
  Q 2.13 2.29 12.56 0.00
  Z
  M 56.53 45.56
  Q 63.66 45.17 70.20 42.31
  A 0.48 0.48 0.0 0 0 70.23 41.45
  C 58.53 35.36 41.21 37.33 28.45 39.79
  A 1.23 1.23 0.0 0 0 27.64 41.66
  L 30.12 45.58
  A 0.96 0.96 0.0 0 0 31.68 45.66
  L 32.67 44.42
  Q 32.94 44.08 33.33 44.27
  C 39.59 47.28 46.05 46.35 52.58 46.02
  A 1.41 1.40 -8.0 0 1 54.01 47.09
  C 56.02 55.34 61.10 93.42 48.25 94.72
  Q 38.43 95.71 28.56 90.43
  Q 28.14 90.20 27.67 90.24
  Q 25.37 90.41 23.17 89.66
  Q 22.65 89.49 22.27 89.88
  C 17.71 94.46 23.97 98.55 27.73 100.27
  C 36.61 104.35 48.74 107.09 56.73 100.07
  C 69.72 88.66 60.66 59.76 56.10 46.20
  Q 55.90 45.60 56.53 45.56
  Z
  M 83.84 48.98
  C 82.97 67.80 82.25 88.12 88.41 106.19
  A 0.46 0.46 0.0 0 0 89.24 106.28
  L 92.96 100.03
  Q 93.24 99.58 93.23 99.04
  Q 92.71 70.55 89.47 42.26
  A 0.36 0.36 0.0 0 0 88.83 42.08
  L 84.16 48.11
  Q 83.86 48.50 83.84 48.98
  Z
  M 113.83 48.87
  C 112.78 67.89 112.39 87.88 118.31 106.25
  A 0.45 0.45 0.0 0 0 119.12 106.34
  L 122.97 99.92
  Q 123.21 99.52 123.20 99.05
  Q 122.62 70.83 119.49 42.80
  A 0.56 0.56 0.0 0 0 118.49 42.51
  L 114.10 48.16
  Q 113.86 48.47 113.83 48.87
  Z"
/>
<path fill="#ffffff" d="
  M 56.10 46.20
  C 60.66 59.76 69.72 88.66 56.73 100.07
  C 48.74 107.09 36.61 104.35 27.73 100.27
  C 23.97 98.55 17.71 94.46 22.27 89.88
  Q 22.65 89.49 23.17 89.66
  Q 25.37 90.41 27.67 90.24
  Q 28.14 90.20 28.56 90.43
  Q 38.43 95.71 48.25 94.72
  C 61.10 93.42 56.02 55.34 54.01 47.09
  A 1.41 1.40 -8.0 0 0 52.58 46.02
  C 46.05 46.35 39.59 47.28 33.33 44.27
  Q 32.94 44.08 32.67 44.42
  L 31.68 45.66
  A 0.96 0.96 0.0 0 1 30.12 45.58
  L 27.64 41.66
  A 1.23 1.23 0.0 0 1 28.45 39.79
  C 41.21 37.33 58.53 35.36 70.23 41.45
  A 0.48 0.48 0.0 0 1 70.20 42.31
  Q 63.66 45.17 56.53 45.56
  Q 55.90 45.60 56.10 46.20
  Z"
/>
<path fill="#ffffff" d="
  M 88.41 106.19
  C 82.25 88.12 82.97 67.80 83.84 48.98
  Q 83.86 48.50 84.16 48.11
  L 88.83 42.08
  A 0.36 0.36 0.0 0 1 89.47 42.26
  Q 92.71 70.55 93.23 99.04
  Q 93.24 99.58 92.96 100.03
  L 89.24 106.28
  A 0.46 0.46 0.0 0 1 88.41 106.19
  Z"
/>
<path fill="#ffffff" d="
  M 118.31 106.25
  C 112.39 87.88 112.78 67.89 113.83 48.87
  Q 113.86 48.47 114.10 48.16
  L 118.49 42.51
  A 0.56 0.56 0.0 0 1 119.49 42.80
  Q 122.62 70.83 123.20 99.05
  Q 123.21 99.52 122.97 99.92
  L 119.12 106.34
  A 0.45 0.45 0.0 0 1 118.31 106.25
  Z"
/>
</svg>
